<svg id="Layer_1" data-name="Layer 1" xmlns="http://www.w3.org/2000/svg" viewBox="0 0 488 384"><defs><style>.cls-1{fill:#ffb6c1;}</style></defs><title>logo_1</title><path class="cls-1" d="M410,190c0,.35,0,.69,0,1A178,178,0,0,1,106.14,316.86a179.17,179.17,0,0,1-21.67-26.19l-4,1.23A182,182,0,0,0,414,191c0-.76,0-1.51,0-2.26Z"/><path class="cls-1" d="M54,191A178,178,0,0,1,357.87,65.14,179.85,179.85,0,0,1,379,90.52l4-1.23A182,182,0,0,0,50,191c0,.43,0,.86,0,1.29l4-1.23Z"/><path class="cls-1" d="M232,19A172,172,0,0,0,60,189.19l1-.31A171,171,0,0,1,352.92,70.08,174,174,0,0,1,372,92.69l1-.3A171.78,171.78,0,0,0,232,19Z"/><path class="cls-1" d="M352.92,311.92a171,171,0,0,1-241.84,0,172.87,172.87,0,0,1-19.6-23.41l-1,.3a172,172,0,0,0,313.48-97l-1,.31A169.93,169.93,0,0,1,352.92,311.92Z"/><path class="cls-1" d="M107.83,231.13l.81,3.18a180.17,180.17,0,0,1-11.23,18.95,65.51,65.51,0,0,1-11.09,12.57,29.84,29.84,0,0,1-11.85,6.45,19,19,0,0,1-9.61.21,13.84,13.84,0,0,1-7.29-4.67,22.6,22.6,0,0,1-4.38-9.07,34.73,34.73,0,0,1-1-9.58,51.94,51.94,0,0,1,1.52-10.86,89.45,89.45,0,0,1,3.86-11.91Q60.1,220.15,63.8,213a107.21,107.21,0,0,1,8-13.1,75,75,0,0,1,7.74-9.3,43.78,43.78,0,0,1,7-5.74,20.39,20.39,0,0,1,5.72-2.76,7.39,7.39,0,0,1,4.46.11,7.65,7.65,0,0,1,3.52,2.75,14,14,0,0,1,2.25,4.94q1.41,5.54-.62,13.27a75.09,75.09,0,0,1-6,15.48,85,85,0,0,1-8.1,13q-4.09,5.3-6.34,5.87a4.19,4.19,0,0,1-3.12-.48,3.74,3.74,0,0,1-2-2.38q-.72-2.79,1.23-7.51a58.07,58.07,0,0,1,4.6-8.91q2.66-4.2,3.34-4.37c.23-.06.37,0,.42.2a4.58,4.58,0,0,1-.13,1.65,4.74,4.74,0,0,0-.17,1.45c.06.26.19.37.39.32q.83-.21,3.65-5.68a71.51,71.51,0,0,0,4.76-11.66q1.93-6.19,1.06-9.62a3.52,3.52,0,0,0-1.17-2,2.29,2.29,0,0,0-2-.28q-3.42.87-9,8.2a108.66,108.66,0,0,0-10.67,17.79,103.65,103.65,0,0,0-7.67,20.85q-2.56,10.4-.78,17.34a16.9,16.9,0,0,0,2.91,6.4,9.57,9.57,0,0,0,4.59,3.26,10.59,10.59,0,0,0,6,0q7.09-1.81,14.68-9.64T107.83,231.13Z"/><path class="cls-1" d="M110.92,221.22a61.34,61.34,0,0,1,11.87-13.72q6.15-5.06,10-6a2.83,2.83,0,0,1,2.13.37,6.72,6.72,0,0,1,1.9,1.63,5,5,0,0,1,.94,1.53,1.44,1.44,0,0,1-.36,1.47,14.53,14.53,0,0,1-2.14,1.62c.36.46.83,1,1.39,1.78s1,1.31,1.34,1.76a3.88,3.88,0,0,1,.64,1.27q.3,1.19-1.25,5t-2.12,5.57a7.08,7.08,0,0,0,0,4c.62,2.41,2,3.34,4.25,2.77s5.31-3.63,9.08-9.15l.76,3q-8.87,16.9-14.19,18.27a3.09,3.09,0,0,1-3-.56,7.07,7.07,0,0,1-1.75-3.48q-1-3.87-.07-11.92-5.11,9.75-7.73,14t-4.87,4.81c-.72.19-1.77-.2-3.17-1.17a18.52,18.52,0,0,1-4.09-4.08,16.39,16.39,0,0,1-2.82-5.82,14.8,14.8,0,0,1-.54-3.95,9.69,9.69,0,0,1,.91-3.6A44.86,44.86,0,0,1,110.92,221.22ZM133,209.85q-11.23,9.08-15.6,14.51t-3.27,9.75a5.65,5.65,0,0,0,1.2,2.43,1.66,1.66,0,0,0,1.72.63,5.47,5.47,0,0,0,1.73-1.18,39.31,39.31,0,0,0,7.37-10.3Q129.14,219.75,133,209.85Z"/><path class="cls-1" d="M185,211.62l.84,3.28A107.86,107.86,0,0,1,179.09,227q-2.88,4.24-5.37,4.89a7.39,7.39,0,0,1-4.69-.31,14.32,14.32,0,0,1-4.48-3,76.13,76.13,0,0,1-5.41-6q-1.71,3.72-3,6.89t-1.88,4.26c-.37.72-.77,1.14-1.19,1.25q-1.32.33-2.34-1.2a16.36,16.36,0,0,1-1.84-4.77,34.74,34.74,0,0,1-1.12-8.76,39.35,39.35,0,0,1,1-8.72,76,76,0,0,1,3-9.64q2-5.26,4.57-11.15,3.62-8.11,6.38-13.38a54.78,54.78,0,0,1,5.07-8.17c1.54-1.94,2.94-3.07,4.22-3.4q2.34-.6,2.88,1.5.47,1.81-5.32,15.25t-17.41,37.1l1.07,4.2a245.31,245.31,0,0,1,13.37-22.22q5.29-7.5,9-8.46a2.68,2.68,0,0,1,2.8,1.19,10,10,0,0,1,1.89,3.92c.81,3.2.2,6.5-1.84,9.93a75.68,75.68,0,0,1-10.23,12.59,17.51,17.51,0,0,0,3.41,2.54,4.25,4.25,0,0,0,3.1.28,6.77,6.77,0,0,0,3-1.87,24.73,24.73,0,0,0,2.93-3.51Q182,216.13,185,211.62Zm-18.68,7.43a37.91,37.91,0,0,0,3.65-5,35,35,0,0,0,3.36-6.54,9,9,0,0,0,.78-5.12c-.14-.52-.43-.72-.89-.61q-1.86.48-5.47,5.21a53.72,53.72,0,0,0-6.49,11.4A9.18,9.18,0,0,1,166.28,219.05Z"/><path class="cls-1" d="M193,211.46l.31,1.22a6.83,6.83,0,0,0,2.57,4.14,4.88,4.88,0,0,0,4.13.66,12.82,12.82,0,0,0,4.67-2.39A28.33,28.33,0,0,0,209,210.8c1.38-1.67,3-3.87,4.94-6.58l.76,3a62.71,62.71,0,0,1-7.76,12.85,17,17,0,0,1-8.93,6.06,8.42,8.42,0,0,1-7.75-1.61q-3.42-2.73-4.91-8.59a19,19,0,0,1,0-9.93,36.75,36.75,0,0,1,5.57-10.83,31.4,31.4,0,0,1,6.16-6.69,17.3,17.3,0,0,1,6.15-3.29,6,6,0,0,1,3.91.12,3.91,3.91,0,0,1,2.15,2.82,10.47,10.47,0,0,1-.73,6.72,27.23,27.23,0,0,1-5.47,7.86A74.45,74.45,0,0,1,193,211.46Zm-.33-3.31a28.72,28.72,0,0,0,6.45-6.18,22.42,22.42,0,0,0,3.38-6.05,8,8,0,0,0,.62-3.78c-.19-.75-.63-1-1.32-.86a7.31,7.31,0,0,0-2.57,1.86,23.84,23.84,0,0,0-3.26,4,22.14,22.14,0,0,0-2.56,5.18A14.3,14.3,0,0,0,192.62,208.15Z"/><path class="cls-1" d="M264.29,172.54l-1.75,3.57a80.42,80.42,0,0,1,8-.94q3.59-.21,6.71-.15a51,51,0,0,1,5.54.38q8.55,1.26,10,7c.6,2.34.11,4.92-1.47,7.72a31.91,31.91,0,0,1-6.85,8.16,56.76,56.76,0,0,1-9.55,6.84,39.07,39.07,0,0,1-9.53,4c-5,1.26-9.05,1.33-12.3.2a8.92,8.92,0,0,1-6.09-6.5,17.1,17.1,0,0,1,.55-8.47,94.32,94.32,0,0,1,5-13.22c-2.71.55-4.7.64-6,.25a3.22,3.22,0,0,1-2.38-2.38,2.28,2.28,0,0,1,.2-1.88,3.91,3.91,0,0,1,1.49-1.29c.67-.36,2-.94,4-1.72l7.6-3a65.21,65.21,0,0,1,7.05-12.3,17.89,17.89,0,0,1,8.1-6.11,6.93,6.93,0,0,1,.84-.27c.31-.08.49,0,.53.13a4.8,4.8,0,0,1-.7,1.84c-.52,1-1.36,2.69-2.53,5l-4.16,8.1A121.08,121.08,0,0,0,281,160.89a27.85,27.85,0,0,0,7.86-6c1.62-2,2.19-3.86,1.74-5.66a5.1,5.1,0,0,0-4.4-3.93c-2.37-.44-5.74-.09-10.1,1a56.63,56.63,0,0,0-8.11,2.85c-3,1.29-5.67,2.56-8,3.83s-4.45,2.5-6.25,3.71-2.65,2-2.56,2.29c0,.1.14.17.37.22,1.74.18,2.67.47,2.77.86s-2.06,2.15-6.57,4.88-7.62,4.32-9.31,4.75a1.66,1.66,0,0,1-2.28-1.35q-.54-2.15,2-8.75t5.33-9a44.67,44.67,0,0,1,4.8-3q3.81-2.22,8.45-4.56t9.54-4.37a67.31,67.31,0,0,1,8.81-3q9.25-2.37,14.74-.25t6.76,7.1a11.78,11.78,0,0,1-.46,7.05,22.35,22.35,0,0,1-5.12,7.62A49.4,49.4,0,0,1,280.46,165,107.28,107.28,0,0,1,264.29,172.54Zm-3.58,7.63c-1.17,2.46-2.23,4.63-3.15,6.51a30.88,30.88,0,0,0-1.87,4.49,5.79,5.79,0,0,0-.12,3.13,5.41,5.41,0,0,0,3.49,3.57c1.93.81,4.41.82,7.44,0a31.14,31.14,0,0,0,8.6-3.79,27.64,27.64,0,0,0,7-5.94c1.76-2.15,2.44-4,2-5.67-.36-1.4-1.45-2.35-3.29-2.86a27.7,27.7,0,0,0-7.9-.56Q267.79,179.3,260.71,180.17Z"/><path class="cls-1" d="M297.79,186.79l-.81-3.17a49.83,49.83,0,0,0,2.65-6.36,5.59,5.59,0,0,1-2.62-.74,3.54,3.54,0,0,1-1.31-2.17,10.32,10.32,0,0,1,.33-4.82,26.24,26.24,0,0,1,2.34-6,11.76,11.76,0,0,1,3.13-4,3.12,3.12,0,0,1,1.24-.68.87.87,0,0,1,1.21.68,9.49,9.49,0,0,1-.65,3.76,119.39,119.39,0,0,1,12.32-4.81A2.47,2.47,0,0,1,319,160a10.57,10.57,0,0,1,1.36,3.09,3.87,3.87,0,0,1-.33,2.46,45,45,0,0,1-2.22,4.29A30.47,30.47,0,0,0,315,177a12.5,12.5,0,0,0-.5,5.39c.4,1.53,1.54,2.06,3.43,1.57s4.93-3.41,8.82-8.71l.84,3.28q-3,5.28-5,8.41a38.23,38.23,0,0,1-3.9,5.14,8,8,0,0,1-3.64,2.47,4.25,4.25,0,0,1-3.91-1,9.5,9.5,0,0,1-2.76-5.1,13.51,13.51,0,0,1-.15-5.07,34.34,34.34,0,0,1,1.66-6.66,74.15,74.15,0,0,1,3.07-7.47c-.87.43-1.84.89-2.93,1.4l-3.45,1.58c-1.21.55-2.15,1-2.8,1.29A36.29,36.29,0,0,1,297.79,186.79Z"/><path class="cls-1" d="M334.84,175.19l.32,1.22a6.79,6.79,0,0,0,2.56,4.14,4.88,4.88,0,0,0,4.13.66,12.71,12.71,0,0,0,4.68-2.39,28.33,28.33,0,0,0,4.35-4.29c1.38-1.67,3-3.87,4.94-6.58l.76,3a62.71,62.71,0,0,1-7.76,12.85,17.06,17.06,0,0,1-8.93,6.06,8.44,8.44,0,0,1-7.76-1.61q-3.4-2.73-4.9-8.59a18.89,18.89,0,0,1,0-9.93,36.51,36.51,0,0,1,5.57-10.83,31.4,31.4,0,0,1,6.16-6.69,17.27,17.27,0,0,1,6.14-3.29A5.93,5.93,0,0,1,349,149a3.87,3.87,0,0,1,2.15,2.81,10.53,10.53,0,0,1-.73,6.72,27.63,27.63,0,0,1-5.47,7.86A74.59,74.59,0,0,1,334.84,175.19Zm-.32-3.31A28.66,28.66,0,0,0,341,165.7a22.15,22.15,0,0,0,3.38-6,7.94,7.94,0,0,0,.63-3.78c-.2-.75-.63-1-1.32-.86a7.22,7.22,0,0,0-2.57,1.86,24.26,24.26,0,0,0-3.26,4,22.14,22.14,0,0,0-2.56,5.18A14.13,14.13,0,0,0,334.52,171.88Z"/><path class="cls-1" d="M359.3,157.73A61.27,61.27,0,0,1,371.17,144q6.15-5.07,10-6a2.73,2.73,0,0,1,2.13.37,6.85,6.85,0,0,1,1.9,1.62,5,5,0,0,1,.94,1.53,1.44,1.44,0,0,1-.36,1.47,13.23,13.23,0,0,1-2.14,1.62l1.39,1.78c.57.72,1,1.31,1.34,1.77a3.79,3.79,0,0,1,.64,1.27q.3,1.17-1.25,5c-1,2.54-1.74,4.4-2.12,5.57a7.08,7.08,0,0,0,0,4q.93,3.63,4.25,2.77t9.08-9.14l.76,3q-8.87,16.91-14.19,18.27a3.1,3.1,0,0,1-3-.55,7.15,7.15,0,0,1-1.75-3.49c-.65-2.57-.68-6.55-.07-11.91q-5.11,9.75-7.73,14c-1.75,2.83-3.37,4.43-4.87,4.82-.72.18-1.77-.21-3.16-1.17a18.61,18.61,0,0,1-4.1-4.09,16.2,16.2,0,0,1-2.81-5.82,14.41,14.41,0,0,1-.55-3.95,9.84,9.84,0,0,1,.91-3.59A44,44,0,0,1,359.3,157.73Zm22.06-11.37q-11.24,9.07-15.6,14.52t-3.27,9.74a5.54,5.54,0,0,0,1.2,2.43,1.67,1.67,0,0,0,1.72.63,5.38,5.38,0,0,0,1.73-1.17,39.48,39.48,0,0,0,7.37-10.3Q377.53,156.26,381.36,146.36Z"/><path class="cls-1" d="M433.34,148.13l.84,3.28a106.05,106.05,0,0,1-6.71,12.06q-2.88,4.26-5.37,4.89a7.33,7.33,0,0,1-4.69-.31,14.17,14.17,0,0,1-4.47-3,74,74,0,0,1-5.42-6q-1.71,3.72-3,6.9t-1.89,4.26c-.37.72-.77,1.13-1.19,1.24q-1.32.33-2.34-1.2a16.25,16.25,0,0,1-1.84-4.77,34.72,34.72,0,0,1-1.12-8.75,40.11,40.11,0,0,1,1-8.73,76.47,76.47,0,0,1,3-9.64q1.95-5.26,4.57-11.14,3.62-8.12,6.38-13.38a54.44,54.44,0,0,1,5.07-8.18q2.31-2.91,4.22-3.4c1.56-.4,2.52.11,2.88,1.51q.46,1.8-5.32,15.25t-17.41,37.09l1.08,4.21a242.38,242.38,0,0,1,13.36-22.23q5.3-7.5,9-8.45a2.65,2.65,0,0,1,2.8,1.18,10,10,0,0,1,1.89,3.92q1.22,4.8-1.84,9.93a75.16,75.16,0,0,1-10.23,12.59,17.22,17.22,0,0,0,3.42,2.54,4.22,4.22,0,0,0,3.09.28,6.83,6.83,0,0,0,3-1.86,26.69,26.69,0,0,0,2.94-3.51Q430.42,152.63,433.34,148.13Zm-18.68,7.44a38.12,38.12,0,0,0,3.65-5,35.24,35.24,0,0,0,3.36-6.53,9,9,0,0,0,.78-5.12c-.14-.53-.43-.73-.89-.61-1.24.31-3.06,2-5.47,5.2a53.72,53.72,0,0,0-6.49,11.4A9.3,9.3,0,0,1,414.66,155.57Z"/><path class="cls-1" d="M189.57,267.72a4,4,0,0,0-.94-1.2,2.86,2.86,0,0,0-1.8-.55,2.46,2.46,0,0,0-2.69,2.47,1.67,1.67,0,0,0,.61,1.39,5.3,5.3,0,0,0,1.67,1l1.54.67a7.77,7.77,0,0,1,2.47,1.51,3.84,3.84,0,0,1,1.15,2.91,5.13,5.13,0,0,1-8.54,3.62,5.86,5.86,0,0,1-1.49-2.83l1.73-.48a3.75,3.75,0,0,0,1,2,3.28,3.28,0,0,0,5.52-2.28,2.4,2.4,0,0,0-.79-1.87,7,7,0,0,0-1.92-1.11l-1.44-.67a7,7,0,0,1-2.14-1.32,3.35,3.35,0,0,1-1.1-2.62c0-2.47,1.89-4.12,4.49-4.12a4.3,4.3,0,0,1,2.56.72,4.86,4.86,0,0,1,1.57,1.77Z"/><path class="cls-1" d="M195.28,265.61a1.22,1.22,0,1,1-1.22,1.22A1.22,1.22,0,0,1,195.28,265.61Zm.86,5v10h-1.72v-10Z"/><path class="cls-1" d="M199.41,270.6h1.73v1.15a3.5,3.5,0,0,1,2.85-1.39,3.38,3.38,0,0,1,2.86,1.37,4.46,4.46,0,0,1,.57,2.66v6.17H205.7v-6.12a2.94,2.94,0,0,0-.46-1.83,2,2,0,0,0-1.63-.72,2.17,2.17,0,0,0-1.75.77,4.16,4.16,0,0,0-.72,2.69v5.21h-1.73Z"/><path class="cls-1" d="M218.49,273.38a4,4,0,0,0-3.12-1.49,3.72,3.72,0,0,0,0,7.42,4.22,4.22,0,0,0,3.22-1.56v2.07a5.33,5.33,0,0,1-3.17,1,5.25,5.25,0,1,1,0-10.49,5.25,5.25,0,0,1,3.1,1Z"/><path class="cls-1" d="M230,278a5.86,5.86,0,0,1-1.22,1.61,4.82,4.82,0,0,1-3.31,1.23c-2.4,0-4.92-1.52-4.92-5.21,0-3,1.82-5.28,4.82-5.28a4.47,4.47,0,0,1,3.77,1.82,6.73,6.73,0,0,1,.93,3.75h-7.75a3.19,3.19,0,0,0,3.17,3.38,3,3,0,0,0,2-.72,3.81,3.81,0,0,0,1-1.37Zm-1.7-3.52a3,3,0,0,0-2.93-2.6,3,3,0,0,0-2.93,2.6Z"/><path class="cls-1" d="M237.9,280.56l5.84-6.75c.4-.48,1.48-1.75,1.87-2.32a4.15,4.15,0,0,0,.89-2.45,3,3,0,0,0-3.2-3.12,3.08,3.08,0,0,0-2.66,1.41,3.54,3.54,0,0,0-.53,1.9h-1.78a5.1,5.1,0,0,1,1.21-3.31,5,5,0,0,1,8.73,3.14A5.67,5.67,0,0,1,247,272.5c-.67.93-1.54,1.92-2.18,2.66l-3.34,3.77h6.77v1.63Z"/><path class="cls-1" d="M252.45,278.45a11.54,11.54,0,0,1,0-11.76,4.71,4.71,0,0,1,8.21,0,11.6,11.6,0,0,1,0,11.76,4.71,4.71,0,0,1-8.21,0Zm1.34-10.76a10.74,10.74,0,0,0,0,9.75,3,3,0,0,0,5.52,0,10.66,10.66,0,0,0,0-9.75,3,3,0,0,0-5.52,0Z"/><path class="cls-1" d="M264.57,280.56l5.83-6.75c.41-.48,1.49-1.75,1.87-2.32a4.15,4.15,0,0,0,.89-2.45,3,3,0,0,0-3.19-3.12,3.09,3.09,0,0,0-2.67,1.41,3.63,3.63,0,0,0-.53,1.9H265a5,5,0,0,1,1.2-3.31,5,5,0,0,1,8.74,3.14,5.69,5.69,0,0,1-1.28,3.44c-.67.93-1.53,1.92-2.18,2.66l-3.34,3.77h6.77v1.63Z"/><path class="cls-1" d="M279.11,278.45a11.54,11.54,0,0,1,0-11.76,4.71,4.71,0,0,1,8.21,0,11.54,11.54,0,0,1,0,11.76,4.71,4.71,0,0,1-8.21,0Zm1.35-10.76a10.66,10.66,0,0,0,0,9.75,3.32,3.32,0,0,0,2.75,1.77,3.36,3.36,0,0,0,2.77-1.77,10.74,10.74,0,0,0,0-9.75,3.36,3.36,0,0,0-2.77-1.77A3.32,3.32,0,0,0,280.46,267.69Z"/><path class="cls-1" d="M196.35,101.23v14.33h-1.77V101.23h-3.89V99.55h9.55v1.68Z"/><path class="cls-1" d="M207.83,105.6h1.72v10h-1.72v-1.39a4.23,4.23,0,0,1-3.41,1.68c-2.52,0-4.85-1.78-4.85-5.28s2.3-5.21,4.85-5.21a4.13,4.13,0,0,1,3.41,1.65Zm-6.49,5c0,2.13,1.2,3.74,3.27,3.74s3.31-1.75,3.31-3.72a3.38,3.38,0,0,0-3.31-3.7C202.9,106.89,201.34,108.14,201.34,110.57Z"/><path class="cls-1" d="M214.54,98.06v11.23l3.65-3.69h2.26l-4.27,4.27,5,5.69H219L215,111l-.44.43v4.11h-1.72V98.06Z"/><path class="cls-1" d="M231.54,113a5.71,5.71,0,0,1-1.23,1.61,4.82,4.82,0,0,1-3.31,1.23c-2.4,0-4.92-1.52-4.92-5.21,0-3,1.82-5.28,4.82-5.28a4.46,4.46,0,0,1,3.77,1.82,6.65,6.65,0,0,1,.94,3.75h-7.75a3.19,3.19,0,0,0,3.16,3.38,3,3,0,0,0,2-.72,4,4,0,0,0,1-1.37Zm-1.71-3.52a3,3,0,0,0-2.93-2.6,3,3,0,0,0-2.92,2.6Z"/><path class="cls-1" d="M247.47,105.6h1.73v10h-1.73v-1.39a4.19,4.19,0,0,1-3.41,1.68c-2.52,0-4.84-1.78-4.84-5.28s2.3-5.21,4.84-5.21a4.11,4.11,0,0,1,3.41,1.65Zm-6.48,5c0,2.13,1.2,3.74,3.27,3.74s3.31-1.75,3.31-3.72a3.38,3.38,0,0,0-3.31-3.7C242.55,106.89,241,108.14,241,110.57Z"/><path class="cls-1" d="M253.57,113.4a1.2,1.2,0,1,1-1.2,1.2A1.22,1.22,0,0,1,253.57,113.4Z"/><path class="cls-1" d="M259,113.4a1.2,1.2,0,1,1-1.2,1.2A1.22,1.22,0,0,1,259,113.4Z"/><path class="cls-1" d="M264.51,113.4a1.2,1.2,0,1,1-1.2,1.2A1.22,1.22,0,0,1,264.51,113.4Z"/></svg>
