<?xml version="1.0" standalone="no"?>
<!DOCTYPE svg PUBLIC "-//W3C//DTD SVG 20010904//EN"
 "http://www.w3.org/TR/2001/REC-SVG-20010904/DTD/svg10.dtd">
<svg version="1.0" xmlns="http://www.w3.org/2000/svg"
 width="488.000000pt" height="488.000000pt" viewBox="0 0 488.000000 488.000000"
 preserveAspectRatio="xMidYMid meet">
<metadata>
Created by potrace 1.11, written by Peter Selinger 2001-2013
</metadata>
<g transform="translate(0.000000,488.000000) scale(0.100000,-0.100000)"
fill="#000000" stroke="none">
<path d="M2095 4259 c-291 -41 -535 -131 -775 -286 -262 -170 -498 -438 -635
-718 -112 -230 -179 -497 -184 -732 -2 -78 -1 -83 18 -83 17 0 21 7 22 38 1
61 15 217 24 262 3 14 8 41 11 60 3 19 21 89 41 154 173 597 664 1068 1271
1220 53 14 120 28 147 32 28 3 59 8 70 11 39 8 311 10 385 3 296 -30 574 -129
810 -288 169 -114 290 -224 410 -376 63 -80 87 -102 101 -99 11 3 19 8 19 11
0 15 -124 167 -200 246 -188 195 -409 341 -667 440 -93 36 -250 79 -333 91
-25 4 -70 11 -100 15 -71 10 -357 10 -435 -1z"/>
<path d="M2139 4166 c-2 -2 -26 -7 -54 -10 -245 -31 -555 -154 -765 -303 -190
-136 -400 -372 -508 -573 -75 -139 -150 -332 -168 -434 -3 -16 -6 -32 -8 -35
-2 -3 -7 -31 -11 -61 -4 -30 -9 -58 -11 -61 -8 -14 -16 -219 -8 -219 5 0 9 26
10 58 0 59 9 155 19 207 59 297 153 516 322 744 77 104 260 282 374 364 143
102 416 230 559 262 3 1 19 4 35 8 119 28 211 39 360 42 174 3 309 -12 460
-52 33 -8 65 -16 70 -17 38 -7 137 -47 234 -92 232 -110 443 -277 604 -477 38
-48 72 -85 74 -83 14 14 -190 241 -309 344 -127 110 -383 251 -553 305 -82 26
-218 60 -290 72 -43 7 -430 17 -436 11z"/>
<path d="M2128 3333 c-4 -68 2 -133 13 -133 5 0 9 10 9 22 l0 21 25 -23 c32
-30 42 -21 14 14 -20 25 -20 28 -5 45 21 23 8 36 -16 14 -17 -15 -18 -14 -18
35 0 65 -17 68 -22 5z"/>
<path d="M1904 3359 c-2 -4 6 -9 18 -11 21 -3 23 -8 23 -73 0 -42 4 -69 10
-67 6 1 10 32 10 69 1 56 4 68 18 71 9 2 17 7 17 11 0 9 -90 10 -96 0z"/>
<path d="M4169 3313 c-75 -82 -203 -387 -208 -498 -4 -81 -106 -162 -124 -96
-2 10 5 45 16 79 20 58 20 64 5 90 -12 20 -13 31 -5 44 14 21 -7 48 -38 48
-25 0 -84 -37 -133 -83 -47 -45 -122 -157 -128 -192 -11 -64 -99 -155 -150
-155 -14 0 -30 10 -40 25 -16 25 -16 26 49 85 67 62 109 129 102 165 -2 11 -4
23 -4 27 -1 4 -10 12 -22 18 -63 34 -209 -119 -223 -236 -7 -58 -95 -137 -116
-104 -10 16 4 76 34 139 24 54 24 82 0 102 -11 9 -27 7 -73 -10 -70 -25 -71
-25 -71 -5 0 28 -34 10 -57 -31 -12 -22 -24 -57 -27 -77 -5 -30 -2 -40 16 -52
19 -13 20 -19 10 -41 -7 -14 -12 -36 -12 -48 0 -22 1 -22 20 3 11 14 27 45 36
70 13 37 24 49 55 62 44 18 46 15 23 -31 -9 -18 -19 -58 -21 -89 -4 -48 -1
-61 17 -84 12 -16 30 -28 40 -28 22 0 74 52 103 103 11 20 23 37 27 37 3 0 11
-13 17 -30 16 -42 65 -70 108 -60 55 13 95 50 148 140 15 25 27 37 27 28 0
-22 63 -88 83 -88 23 0 51 33 91 109 l35 66 1 -47 c1 -133 69 -130 153 5 l31
50 9 -29 c23 -69 44 -66 76 11 13 30 25 55 28 55 2 0 16 -14 30 -30 27 -32 72
-60 97 -60 40 0 142 143 134 190 -2 15 -13 7 -48 -38 -48 -60 -73 -71 -104
-47 -18 14 -18 16 12 46 78 80 106 151 82 208 -16 39 -36 45 -69 21 -30 -21
-106 -127 -162 -225 -60 -105 -46 -31 19 101 73 148 160 351 164 384 4 37 -31
38 -63 3z m51 -365 c0 -28 -56 -127 -75 -135 -8 -3 -22 -2 -31 1 -13 5 -12 12
10 48 34 57 75 108 86 108 6 0 10 -10 10 -22z m-458 -166 c-66 -133 -109 -177
-130 -134 -19 36 8 85 86 160 42 41 78 69 80 63 2 -5 -14 -46 -36 -89z m-330
-33 c-18 -41 -77 -108 -86 -98 -10 10 29 97 57 127 40 42 55 28 29 -29z"/>
<path d="M2019 3303 c-23 -6 -31 -53 -13 -80 11 -18 23 -23 54 -21 l40 1 0 51
c0 51 0 51 -33 52 -17 0 -39 -1 -48 -3z m51 -34 c21 -37 -28 -69 -49 -32 -11
21 3 53 24 53 8 0 19 -9 25 -21z"/>
<path d="M2236 3294 c-26 -25 -20 -72 9 -86 29 -13 81 4 69 23 -4 8 -9 8 -17
0 -16 -16 -44 -13 -51 4 -4 12 3 15 34 15 44 0 47 5 24 38 -18 26 -46 28 -68
6z m49 -14 c4 -6 -6 -10 -22 -10 -22 0 -25 2 -13 10 19 12 27 12 35 0z"/>
<path d="M2407 3292 c-37 -41 -10 -92 47 -90 29 1 35 5 38 27 7 51 -5 76 -38
79 -20 2 -36 -4 -47 -16z m62 -19 c12 -23 -4 -53 -29 -53 -23 0 -36 36 -20 55
17 20 37 19 49 -2z"/>
<path d="M2526 3221 c-4 -5 -2 -12 3 -15 5 -4 12 -2 15 3 4 5 2 12 -3 15 -5 4
-12 2 -15 -3z"/>
<path d="M2586 3221 c-4 -7 -5 -15 -2 -18 9 -9 19 4 14 18 -4 11 -6 11 -12 0z"/>
<path d="M2636 3221 c-4 -5 -2 -12 3 -15 5 -4 12 -2 15 3 4 5 2 12 -3 15 -5 4
-12 2 -15 -3z"/>
<path d="M2742 3005 c-66 -19 -184 -73 -264 -121 -53 -33 -64 -45 -89 -100
-30 -66 -37 -108 -19 -119 13 -8 134 52 157 77 14 16 15 21 4 28 -27 16 129
97 241 126 69 18 111 12 125 -19 22 -47 -17 -87 -144 -151 -40 -20 -74 -36
-77 -36 -2 0 11 29 30 65 40 76 41 85 12 77 -31 -8 -89 -72 -118 -130 -22 -46
-31 -54 -85 -76 -33 -13 -64 -31 -69 -39 -15 -24 12 -50 46 -45 15 3 28 4 28
2 0 -1 -11 -31 -25 -67 -25 -67 -33 -127 -22 -162 15 -45 96 -68 177 -50 127
28 280 165 280 252 0 72 -67 100 -220 91 -74 -4 -78 -4 -69 14 5 10 14 18 20
18 16 0 146 67 196 101 113 78 145 202 66 254 -35 23 -118 28 -181 10z m82
-454 c25 -21 19 -46 -21 -87 -75 -74 -191 -106 -233 -64 -18 18 -18 22 -6 59
29 79 44 100 78 103 75 8 166 2 182 -11z"/>
<path d="M1691 2684 c-35 -29 -136 -229 -180 -356 -16 -47 -31 -110 -33 -139
-3 -46 -8 -59 -40 -92 -38 -40 -63 -45 -81 -15 -8 13 -5 33 12 82 21 60 22 67
7 87 -11 16 -12 27 -5 41 15 28 -14 58 -49 52 -81 -15 -252 -208 -252 -285 0
-56 -168 -257 -251 -299 -150 -77 -226 72 -154 300 57 180 187 391 255 412 29
9 39 -30 24 -94 -15 -62 -83 -205 -84 -175 0 29 -15 19 -47 -35 -58 -96 -69
-159 -34 -178 29 -15 35 -13 69 19 90 86 182 292 182 406 0 57 -29 112 -65
125 -52 19 -153 -49 -234 -159 -175 -236 -254 -527 -180 -662 96 -174 315 -89
474 185 28 47 53 86 56 86 3 0 12 -11 19 -25 18 -34 57 -58 84 -51 15 4 38 32
69 87 38 67 46 77 45 53 -1 -62 3 -83 20 -104 16 -20 21 -21 42 -10 28 15 49
39 87 97 16 24 30 43 33 43 3 0 10 -15 15 -32 12 -40 41 -49 54 -16 5 13 16
40 25 60 l16 37 45 -44 c38 -38 51 -45 84 -45 36 0 42 4 74 53 19 28 40 63 47
76 l12 24 13 -29 c52 -121 180 -79 266 88 33 64 13 73 -35 15 -68 -84 -127
-101 -157 -46 -9 17 -7 23 10 35 44 31 111 105 131 143 19 38 21 75 5 101 -19
30 -109 -8 -163 -69 -30 -35 -70 -118 -76 -160 -6 -40 -62 -126 -91 -139 -20
-9 -65 3 -65 18 0 3 15 24 33 46 81 96 100 150 71 206 -26 51 -64 35 -128 -56
-25 -34 -65 -98 -89 -140 -73 -127 -62 -59 15 99 74 153 158 353 158 377 0 27
-28 28 -59 2z m339 -254 c0 -32 -82 -151 -96 -138 -20 21 49 148 81 148 8 0
15 -5 15 -10z m-290 -105 c0 -24 -28 -86 -55 -121 -18 -23 -30 -31 -45 -27
-11 3 -20 8 -20 12 0 10 40 73 72 114 31 39 48 47 48 22z m-468 -189 c-29 -58
-63 -114 -79 -126 -26 -20 -28 -20 -40 -4 -18 25 -16 43 7 84 21 36 151 163
158 155 3 -2 -18 -51 -46 -109z"/>
<path d="M4105 2460 c-3 -5 -8 -51 -10 -102 -5 -100 -8 -125 -29 -239 -57
-309 -202 -605 -415 -848 -139 -159 -361 -327 -556 -421 -93 -45 -278 -113
-335 -124 -14 -2 -56 -11 -95 -20 -111 -23 -180 -30 -335 -30 -176 0 -250 7
-398 40 -413 92 -779 329 -1037 672 -34 45 -56 66 -68 64 -27 -5 -21 -20 40
-101 158 -211 381 -398 623 -522 176 -92 321 -138 570 -185 55 -10 419 -13
480 -4 203 30 340 68 497 136 522 226 913 683 1048 1224 36 143 42 187 51 353
6 103 5 117 -9 117 -9 0 -19 -4 -22 -10z"/>
<path d="M4025 2382 c-4 -456 -254 -956 -628 -1257 -248 -199 -582 -342 -871
-372 -91 -9 -323 -10 -401 -1 -304 36 -580 146 -827 330 -99 74 -289 262 -338
335 -19 29 -42 53 -50 53 -9 0 -11 -3 -5 -8 6 -4 30 -34 54 -67 143 -192 371
-376 607 -493 144 -70 316 -127 449 -147 17 -2 57 -9 90 -14 87 -13 382 -10
469 5 387 67 695 223 956 484 147 147 235 267 323 440 55 109 126 294 141 370
6 32 24 126 31 165 11 62 18 235 9 235 -5 0 -9 -26 -9 -58z"/>
<path d="M1828 1694 c-11 -24 -10 -29 17 -50 17 -14 36 -29 43 -35 10 -8 10
-14 1 -25 -16 -19 -36 -18 -48 3 -5 10 -13 14 -17 10 -5 -4 -3 -16 2 -25 29
-46 109 -7 86 42 -6 13 -23 30 -38 38 -15 7 -29 18 -31 24 -5 16 27 26 42 14
9 -7 15 -8 19 -1 7 11 -24 31 -49 31 -8 0 -21 -12 -27 -26z"/>
<path d="M2395 1700 c-23 -26 -11 -39 15 -15 23 21 50 14 50 -13 0 -11 -14
-35 -30 -53 -57 -64 -57 -69 -1 -69 27 0 53 5 56 10 6 9 -22 15 -53 11 -7 -1
3 19 22 44 36 47 38 68 8 93 -23 18 -46 15 -67 -8z"/>
<path d="M2530 1700 c-43 -43 -16 -150 38 -150 53 0 77 116 31 153 -28 22 -44
22 -69 -3z m60 -20 c29 -54 -13 -140 -46 -96 -19 26 -18 81 2 100 21 21 31 20
44 -4z"/>
<path d="M2666 1704 c-9 -8 -16 -20 -16 -25 0 -15 18 -10 28 7 11 20 52 10 52
-13 0 -8 -18 -37 -40 -63 -22 -26 -40 -51 -40 -54 0 -3 23 -6 50 -6 35 0 50 4
50 13 0 9 -10 12 -32 9 l-31 -5 22 31 c12 17 26 34 31 37 6 4 10 19 10 35 0
45 -52 66 -84 34z"/>
<path d="M2795 1700 c-27 -30 -25 -104 2 -132 54 -54 121 40 82 115 -23 42
-55 49 -84 17z m65 -24 c26 -50 -12 -129 -46 -94 -20 20 -24 74 -7 97 19 28
37 26 53 -3z"/>
<path d="M1940 1690 c0 -5 5 -10 10 -10 6 0 10 5 10 10 0 6 -4 10 -10 10 -5 0
-10 -4 -10 -10z"/>
<path d="M1947 1654 c-10 -11 -9 -104 2 -104 11 0 19 72 11 95 -3 9 -9 13 -13
9z"/>
<path d="M1995 1651 c-10 -9 -5 -101 5 -101 6 0 10 12 10 26 0 34 17 64 33 58
8 -3 12 -20 10 -45 -1 -27 2 -39 10 -36 18 6 16 87 -4 97 -16 9 -56 10 -64 1z"/>
<path d="M2117 1642 c-21 -24 -22 -56 -1 -77 18 -17 65 -17 71 1 2 7 -8 9 -26
6 -23 -3 -30 0 -36 17 -9 30 12 54 42 46 26 -6 32 9 7 19 -26 10 -40 7 -57
-12z"/>
<path d="M2220 1640 c-32 -32 -9 -90 35 -90 24 0 49 22 38 33 -3 4 -12 2 -19
-4 -15 -12 -44 -5 -44 11 0 5 16 10 35 10 28 0 35 4 35 20 0 18 -26 40 -49 40
-6 0 -20 -9 -31 -20z m55 -10 c4 -6 -5 -10 -20 -10 -15 0 -24 4 -20 10 3 6 12
10 20 10 8 0 17 -4 20 -10z"/>
</g>
</svg>
